<?xml version="1.0" encoding="UTF-8" standalone="no"?>
<svg
   xmlns:dc="http://purl.org/dc/elements/1.1/"
   xmlns:cc="http://creativecommons.org/ns#"
   xmlns:rdf="http://www.w3.org/1999/02/22-rdf-syntax-ns#"
   xmlns:svg="http://www.w3.org/2000/svg"
   xmlns="http://www.w3.org/2000/svg"
   xmlns:sodipodi="http://sodipodi.sourceforge.net/DTD/sodipodi-0.dtd"
   xmlns:inkscape="http://www.inkscape.org/namespaces/inkscape"
   sodipodi:docname="recency_grey.svg"
   inkscape:version="1.0.1 (0767f8302a, 2020-10-17)"
   id="svg8"
   version="1.1"
   viewBox="0 0 13.229166 13.229167"
   height="50"
   width="50">
  <defs
     id="defs2" />
  <sodipodi:namedview
     inkscape:window-maximized="0"
     inkscape:window-y="27"
     inkscape:window-x="372"
     inkscape:window-height="1016"
     inkscape:window-width="1544"
     units="px"
     showgrid="false"
     inkscape:document-rotation="0"
     inkscape:current-layer="layer1"
     inkscape:document-units="mm"
     inkscape:cy="18.79223"
     inkscape:cx="154.77832"
     inkscape:zoom="2.8284271"
     inkscape:pageshadow="2"
     inkscape:pageopacity="0.0"
     borderopacity="1.0"
     bordercolor="#666666"
     pagecolor="#ffffff"
     id="base" />
  <metadata
     id="metadata5">
    <rdf:RDF>
      <cc:Work
         rdf:about="">
        <dc:format>image/svg+xml</dc:format>
        <dc:type
           rdf:resource="http://purl.org/dc/dcmitype/StillImage" />
        <dc:title></dc:title>
      </cc:Work>
    </rdf:RDF>
  </metadata>
  <g
     id="layer1"
     inkscape:groupmode="layer"
     inkscape:label="Layer 1">
    <path
       sodipodi:open="true"
       d="M 2.4153004,6.5022898 A 4.4209175,4.4209175 0 0 1 5.6920004,2.2320113 4.4209175,4.4209175 0 0 1 10.664845,4.2918311 4.4209175,4.4209175 0 0 1 9.9622786,9.6283506 4.4209175,4.4209175 0 0 1 4.6257591,10.330917"
       sodipodi:arc-type="arc"
       sodipodi:end="2.0943951"
       sodipodi:start="3.1415927"
       sodipodi:ry="4.4209175"
       sodipodi:rx="4.4209175"
       sodipodi:cy="6.5022898"
       sodipodi:cx="6.8362179"
       sodipodi:type="arc"
       id="path833"
       style="fill:none;stroke:#888888;stroke-width:1.00517;stroke-miterlimit:4;stroke-dasharray:none;stroke-linecap:round;stroke-opacity:1" />
    <path
       d="m 0.47095315,6.3865579 a 0.35996825,0.35563898 45 0 0 0.003172,0.5062456 L 2.2096926,8.6303187 a 0.35563898,0.35996825 45 0 1 2.443e-4,2.441e-4 0.35563898,0.35996825 45 0 0 0.014422,0.0154 0.35563898,0.35996825 45 0 0 0.5060011,-0.00294 L 4.4869397,6.8835144 4.4866953,6.8832701 a 0.35563898,0.35996825 0 0 0 0.0968,-0.2468895 0.35563898,0.35996825 0 0 0 -0.3559119,-0.359823 0.35563898,0.35996825 0 0 0 -0.063067,0.00587 l -3.40462967,0.00293 a 0.35996825,0.35563898 45 0 0 -4.8896e-4,-2e-7 0.35996825,0.35563898 45 0 0 -0.28844462,0.1012005 z"
       style="fill:#888888;stroke:none;stroke-width:0.632171;stroke-miterlimit:4;stroke-dasharray:none;fill-opacity:1"
       id="rect923" />
    <path
       sodipodi:nodetypes="cc"
       id="path1101"
       d="m 6.8338966,4.5973401 0.00374,2.177751"
       style="fill:none;stroke:#888888;stroke-width:1.005;stroke-linecap:round;stroke-linejoin:miter;stroke-miterlimit:4;stroke-dasharray:none;stroke-opacity:1" />
    <path
       sodipodi:nodetypes="cc"
       style="fill:none;stroke:#888888;stroke-width:1.005;stroke-linecap:round;stroke-linejoin:miter;stroke-miterlimit:4;stroke-dasharray:none;stroke-opacity:1"
       d="M 8.710144,8.4463659 6.8395373,6.7750911"
       id="path1101-1" />
  </g>
</svg>
